<?xml version="1.0" standalone="no"?>
<!DOCTYPE svg PUBLIC "-//W3C//DTD SVG 20010904//EN"
 "http://www.w3.org/TR/2001/REC-SVG-20010904/DTD/svg10.dtd">
<svg version="1.0" xmlns="http://www.w3.org/2000/svg"
 width="200.000000pt" height="151.000000pt" viewBox="0 0 200.000000 151.000000"
 preserveAspectRatio="xMidYMid meet">

<g transform="translate(0.000000,151.000000) scale(0.100000,-0.100000)"
fill="#000000" stroke="none">
<path d="M853 1346 c-159 -59 -265 -197 -289 -375 -15 -114 48 -274 142 -360
34 -31 63 -50 73 -47 9 2 50 12 91 20 99 22 174 62 178 97 2 14 -2 37 -7 52
-10 26 -14 27 -80 27 -87 0 -121 12 -121 42 0 13 -7 41 -14 63 -8 22 -11 47
-6 55 10 20 2 40 -16 40 -20 0 -18 10 8 37 17 18 23 40 28 111 9 105 16 124
44 120 17 -2 34 -34 91 -178 89 -222 141 -300 268 -397 56 -43 59 -44 77 -28
32 29 79 109 101 170 27 77 27 199 0 276 -33 98 -99 182 -186 237 -102 65
-265 81 -382 38z m361 -162 c4 -10 13 -13 25 -9 24 7 45 -18 36 -45 -5 -14 -2
-20 9 -20 20 0 22 -46 2 -57 -7 -4 -13 -19 -12 -33 1 -21 -4 -25 -27 -25 -17
-1 -33 -8 -38 -18 -13 -22 -34 -22 -51 1 -7 9 -24 17 -38 17 -20 0 -25 5 -24
24 0 13 -7 32 -17 42 -20 20 -15 49 8 49 10 0 12 6 8 20 -9 27 12 52 36 45 12
-4 21 -1 25 9 3 9 16 16 29 16 13 0 26 -7 29 -16z"/>
<path d="M1160 1105 c-18 -21 -3 -55 25 -55 15 0 26 7 30 20 7 23 -10 50 -30
50 -7 0 -18 -7 -25 -15z"/>
<path d="M893 1032 c-18 -2 -33 -7 -33 -13 0 -13 57 -11 65 2 9 14 6 15 -32
11z"/>
<path d="M518 423 c-16 -4 -18 -17 -18 -104 0 -99 0 -99 25 -99 25 0 25 0 25
99 0 55 -3 102 -7 104 -5 2 -16 2 -25 0z"/>
<path d="M1438 423 c-16 -4 -18 -18 -18 -104 0 -99 0 -99 25 -99 l25 0 0 105
c0 58 -3 104 -7 104 -5 -1 -16 -3 -25 -6z"/>
<path d="M70 392 c-42 -42 -42 -101 -1 -143 62 -61 161 -19 161 70 0 55 -32
90 -87 98 -37 5 -45 2 -73 -25z m74 3 c16 -17 36 -77 36 -111 0 -30 -24 -58
-44 -51 -37 14 -62 137 -34 165 16 16 23 15 42 -3z"/>
<path d="M630 410 c-18 -11 -4 -40 20 -40 13 0 20 7 20 19 0 22 -21 33 -40 21z"/>
<path d="M1231 401 c-38 -38 -23 -78 39 -106 31 -14 40 -23 38 -39 -5 -31 -34
-31 -64 1 l-26 28 4 -30 c3 -28 5 -30 52 -30 41 0 52 4 68 26 26 34 13 62 -40
87 -28 13 -37 23 -37 41 0 34 18 36 54 6 27 -24 31 -25 31 -8 0 29 -12 38 -57
41 -32 2 -47 -2 -62 -17z"/>
<path d="M304 341 c-5 -3 -9 -32 -9 -63 0 -56 1 -58 25 -58 25 0 26 3 25 53 0
40 4 52 15 52 11 0 16 -14 18 -52 3 -51 4 -53 32 -53 28 0 29 1 23 38 -14 86
-15 87 -70 88 -28 1 -55 -1 -59 -5z"/>
<path d="M627 343 c-4 -3 -7 -33 -7 -65 l0 -58 31 0 c24 0 30 3 25 16 -3 9 -6
38 -6 65 0 41 -3 49 -18 49 -10 0 -22 -3 -25 -7z"/>
<path d="M754 341 c-5 -3 -9 -32 -9 -64 0 -54 1 -57 25 -57 24 0 26 3 25 53 0
40 4 52 15 52 11 0 16 -14 18 -52 3 -49 5 -53 28 -53 21 0 24 4 23 33 -1 17
-4 46 -8 62 -6 28 -9 30 -57 31 -29 1 -56 -1 -60 -5z"/>
<path d="M957 332 c-35 -39 -6 -112 44 -112 29 0 59 18 59 35 0 13 -3 13 -20
3 -30 -19 -55 1 -55 43 0 39 28 49 33 12 2 -15 10 -23 23 -23 22 0 26 29 7 48
-18 18 -73 14 -91 -6z"/>
<path d="M1486 341 c-4 -5 -1 -11 5 -13 6 -2 14 -27 17 -56 4 -47 7 -52 29
-52 24 0 25 2 19 48 -11 73 -15 82 -41 82 -13 0 -26 -4 -29 -9z"/>
<path d="M1637 332 c-25 -27 -22 -78 5 -96 32 -23 65 -20 94 10 44 43 14 104
-51 104 -18 0 -39 -8 -48 -18z m63 -12 c14 -26 9 -82 -7 -87 -14 -5 -38 69
-30 91 9 22 24 20 37 -4z"/>
<path d="M1824 342 c-5 -4 -9 -46 -9 -95 l0 -87 28 0 c23 0 27 4 27 30 0 25 4
30 24 30 27 0 66 42 66 69 0 9 -7 26 -15 38 -12 17 -25 22 -64 21 -26 0 -52
-3 -57 -6z m84 -61 c-2 -25 -8 -37 -20 -39 -15 -3 -18 4 -18 41 0 50 7 62 27
45 9 -7 13 -25 11 -47z"/>
</g>
</svg>
